<svg width="536" height="437" viewBox="0 0 536 437" fill="none" xmlns="http://www.w3.org/2000/svg">
<path d="M192.996 365.502C181.643 356.1 174.159 344.061 166.496 332.001C165.021 329.679 163.602 327.342 162.235 325.002L132.164 338.502C138.073 351.796 145.772 363.914 156.5 374.5C178.795 396.5 211.649 411.887 251.004 417.478C285.747 422.414 320.25 418.548 349 407C366.979 399.779 382.564 389.183 394.995 377.001L351.797 370.689C321.206 393.456 288.909 396.385 251.01 391.001C231.563 388.238 209.571 379.226 192.996 365.502Z" fill="#191D74"/>
<path d="M119.773 307.513L192.27 330.917L135.753 381.999L119.773 307.513Z" fill="#191D74"/>
<path d="M219.406 237.512C266.453 200.67 274.726 132.664 237.884 85.6164C201.041 38.569 133.035 30.2962 85.9877 67.1386C38.9403 103.981 30.6675 171.987 67.5099 219.035C104.352 266.082 172.358 274.355 219.406 237.512Z" stroke="#191D74" stroke-width="35.1865" stroke-linecap="round" stroke-linejoin="round"/>
<path d="M374.699 256.66C432.42 272.126 491.749 237.872 507.215 180.152C522.681 122.432 488.427 63.1027 430.707 47.6366C372.987 32.1706 313.658 66.4243 298.191 124.145C282.725 181.865 316.979 241.194 374.699 256.66Z" stroke="#191D74" stroke-width="35.1865" stroke-linecap="round" stroke-linejoin="round"/>
<circle cx="152.411" cy="145.442" r="61.5764" transform="rotate(-52.742 152.411 145.442)" fill="black"/>
<mask id="mask0" mask-type="alpha" maskUnits="userSpaceOnUse" x="91" y="83" width="124" height="124">
<circle cx="153.288" cy="145.288" r="61.5764" transform="rotate(-52.742 153.288 145.288)" fill="black"/>
</mask>
<g mask="url(#mask0)">
<path d="M169.601 75.6249C181.588 84.7427 183.794 102.008 174.53 114.188C165.265 126.369 148.037 128.851 136.05 119.734C124.063 110.616 121.856 93.3505 131.121 81.1702C140.386 68.9899 157.614 66.5072 169.601 75.6249Z" fill="white"/>
</g>
<circle cx="403.044" cy="152.258" r="61.5764" transform="rotate(-52.742 403.044 152.258)" fill="black"/>
<mask id="mask1" mask-type="alpha" maskUnits="userSpaceOnUse" x="341" y="90" width="124" height="124">
<circle cx="403.288" cy="152.288" r="61.5764" transform="rotate(-52.742 403.288 152.288)" fill="black"/>
</mask>
<g mask="url(#mask1)">
<path d="M412.124 85.9189C424.111 95.0366 426.318 112.302 417.053 124.482C407.788 136.663 390.56 139.145 378.573 130.028C366.586 120.91 364.38 103.644 373.645 91.4642C382.909 79.2839 400.137 76.8012 412.124 85.9189Z" fill="white"/>
</g>
</svg>
